<svg xmlns="http://www.w3.org/2000/svg" viewBox="0 0 85.13 75.33"><g fill="#facc15" id="Layer_2" data-name="Layer 2"><g id="_78" data-name="78"><path d="M26.73,62a9.09,9.09,0,0,1-1.46-1.25c-.93-.85-2.28-2.13-4-3.8-.57-.56-1.19-1.15-1.86-1.79l-.51-.48a3.07,3.07,0,0,0-.26-.25l-.25-.23a4.84,4.84,0,0,0-1.18-.72,2.46,2.46,0,0,0-1.42-.27c-.5,0-1,.13-1.51.17a3.63,3.63,0,0,0-1.42.73,4.26,4.26,0,0,0-1,1.32,5,5,0,0,0-.51,1.64,3.47,3.47,0,0,0,.26,1.76,18,18,0,0,0,.95,1.56,6.42,6.42,0,0,0,1.54,1.49c1.07,1,2.11,2.06,3.19,3.18a32.6,32.6,0,0,0,3.38,3.37A15.33,15.33,0,0,0,22.3,70.3c.61.58,1.26,1.13,1.93,1.68.25.36.51.71.79,1l.21.24c.07.06.13.14.2.19l.11.09.12.07a1.46,1.46,0,0,0,.25.13,1.84,1.84,0,0,0,1.09.08,1.75,1.75,0,0,0,.9-.53l.1-.08.1-.08.22-.22c.17-.15.33-.31.49-.47l1-1c.66-.64,1.32-1.3,1.93-2,1.32-1.35,2.63-2.75,4.05-4.09A28.17,28.17,0,0,1,40,61.13a33.94,33.94,0,0,1,4.35-4.38c1.57-1.38,2.82-3.13,4.48-4.51s3-3.11,4.61-4.64a44.21,44.21,0,0,0,4.73-4.75C59.72,41.2,61.27,39.53,63,38a41.32,41.32,0,0,1,4.94-5c1.63-1.69,3.45-3.24,5-5,1.73-1.66,3.32-3.48,5.12-5.12.88-.83,1.77-1.66,2.63-2.51.43-.42.85-.85,1.27-1.28l.61-.66.31-.33,0-.05,0,0L83,18l.09-.13a2,2,0,0,0,.28-1.14A1.8,1.8,0,0,0,83,15.6l0,0-.06-.07-.15-.16L82.41,15l-.61-.65c-.41-.42-.83-.84-1.25-1.24-1.5-1.84-3.4-3.23-5-4.91s-3.18-3.33-4.89-4.82l-.31-.29L70.22,3l-.15-.14-.26-.23-.28-.19a4,4,0,0,0-1.26-.53,4.3,4.3,0,0,0-2.67.26,9.42,9.42,0,0,0-1,.93,5.24,5.24,0,0,0-.74,1.07,4,4,0,0,0-.37,1.28,3.17,3.17,0,0,0,.14,1.33,3,3,0,0,0,.56,1.21.71.71,0,0,0,.1.14l.11.13c.08.08.14.16.25.26l.57.55c.76.74,1.53,1.46,2.25,2.21s1.47,1.48,2.17,2.23c.36.38.71.75,1.07,1.11l.54.54.29.25.14.13,0,0,.06.06.13.11L73,16.76l-.8.8-.64.66c-.3.3-.59.61-.89.92-.6.61-1.2,1.2-1.84,1.75C67.58,22.41,66,23.52,64.75,25s-2.63,2.64-3.93,3.89a30.16,30.16,0,0,0-3.77,3.72c-1.24,1.2-2.29,2.53-3.58,3.55s-2.4,2.17-3.41,3.35-2.45,1.86-3.2,3.16c-1,1.08-2.24,1.81-3,3a20,20,0,0,1-2.79,2.74l-2.57,2.52c-3.69,3.6-6.61,6.42-8.62,8.33-1,1-1.78,1.67-2.31,2.15a4.22,4.22,0,0,1-.85.69,4.93,4.93,0,0,1,.85-1c.59-.65,1.49-1.6,2.66-2.83,2.34-2.46,5.79-6,10.16-10.49a25.73,25.73,0,0,1,2.74-2.8c1-1,1.84-2.06,3-3a23.81,23.81,0,0,1,3.15-3.21c1.09-1.1,2.28-2.16,3.36-3.4s2.4-2.29,3.54-3.59a29.5,29.5,0,0,0,3.72-3.77c1.39-1.16,2.55-2.6,3.89-3.93a31.33,31.33,0,0,0,4.05-4.09c.56-.62,1.16-1.22,1.77-1.82l.92-.89.27-.27.11-.1-.15-.13,0,0h0l0,0-.13-.14-.27-.27-.54-.54-1.1-1.08c-.74-.71-1.48-1.43-2.21-2.19s-1.55-1.41-2.31-2.16l-.56-.56-.3-.33-.16-.18-.14-.2a5,5,0,0,1-.8-1.72,5.39,5.39,0,0,1,.13-3.75,5.66,5.66,0,0,1,2.6-2.8A5.28,5.28,0,0,1,68.67.16a5.54,5.54,0,0,1,1.81.8l.4.3.37.34.62.59A67.13,67.13,0,0,0,76.76,7c1.67,1.6,3.29,3.29,5,4.91l2.51,2.59a3.27,3.27,0,0,1,.61,1,3.43,3.43,0,0,1,.25,1.14,3.6,3.6,0,0,1-.64,2.24l-.21.21-.11.11,0,0-.05,0-.34.3c-.23.19-.45.39-.67.6-.44.41-.86.83-1.28,1.27-.84.87-1.65,1.77-2.47,2.67-1.66,1.78-3.4,3.45-5.12,5.12s-3.36,3.38-5,5-3.4,3.23-5,4.94S60.87,42.35,59.35,44s-3.09,3.27-4.75,4.74A59.26,59.26,0,0,0,50,53.38a30.87,30.87,0,0,1-4.51,4.49c-1.41,1.55-3.07,2.8-4.38,4.35a44.38,44.38,0,0,0-4.24,4.21c-1.42,1.35-2.84,2.64-4.09,4.06-.62.71-1.29,1.36-2,2l-1,.94-.49.48c-.09.08-.15.15-.27.25l-.16.15-.17.13a2.93,2.93,0,0,1-1.57.63,3.31,3.31,0,0,1-1.65-.3c-.12-.07-.25-.13-.36-.21L25,74.44l-.16-.13a4,4,0,0,1-.31-.27l-.23-.24a9.92,9.92,0,0,0-.95-.89c-.6-.62-1.2-1.22-1.8-1.81s-1.18-1.18-1.74-1.78c-1.42-.9-2.27-2.3-3.33-3.43a28.79,28.79,0,0,1-3.14-3.22,8.53,8.53,0,0,1-1.6-1.45,5.45,5.45,0,0,1-1.08-2.06A6.53,6.53,0,0,1,10.34,57,3.88,3.88,0,0,1,11,55a3.36,3.36,0,0,1,1.28-1.57A7.31,7.31,0,0,1,14,52.55a8.07,8.07,0,0,1,1.81-.16,4.57,4.57,0,0,1,1.69.36,4.42,4.42,0,0,1,1.4.85l.28.27.24.27.47.52c.64.67,1.23,1.29,1.79,1.86,1.66,1.74,2.94,3.09,3.8,4A8.84,8.84,0,0,1,26.73,62Z"/><path d="M29.73,59c-.08.07-.27,0-.57-.14L29,58.77a.32.32,0,0,1-.17-.11c.05-.14-.28.09-.18-.12s-.11-.11-.2-.14-.06-.18-.21-.15.08-.35-.23-.18c-.12,0-.18-.1-.24-.18s-.15-.15-.25-.2c.1-.26-.05-.26-.26-.22.16-.32,0-.37-.27-.22-.09-.08-.08-.26-.28-.24s-.24-.12-.29-.26c-.25.07-.34,0-.3-.26-.27.08-.29-.09-.3-.28s-.35,0-.31-.28-.25-.17-.32-.3-.06-.36-.33-.31-.32-.11-.33-.31c-.29.08-.32-.12-.33-.32s-.13-.33-.34-.34-.31-.14-.34-.34-.12-.33-.34-.34-.18-.27-.34-.34c.07-.28-.27-.16-.32-.33s-.12-.32-.32-.33-.27-.15-.3-.33c-.37.17-.14-.27-.3-.32,0-.21-.22-.18-.28-.31s-.07-.32-.28-.3-.27-.11-.26-.3c-.23,0-.07-.3-.26-.29a1.61,1.61,0,0,1-.24-.28c.13-.3-.13-.21-.22-.27s-.28,0-.22-.26,0-.26-.2-.25.16-.45-.18-.24c-.12,0,.08-.35-.17-.23s-.11-.14-.16-.21l-.14-.2c-.39-.57-.57-1-.45-1.07s.58.1,1.27.6c.07,0,.27,0,.21.15s.24,0,.22.17c.27-.12.18.11.24.19s.1.2.25.2.1.21.26.21c0,.2.08.25.27.23,0,.2.2.15.28.24-.09.27.13.23.29.25s.16.22.3.27.24.14.31.27.31.09.31.29c.16,0,.22.19.32.3s.2.21.32.3,0,.41.33.32c.14.08.19.25.34.32a.65.65,0,0,0,.34.33c-.09.31.15.3.34.34a.7.7,0,0,1,.34.34,2.12,2.12,0,0,1,.33.34c.17.06.14.31.32.34s.13.3.32.33.3.12.3.32,0,.39.3.32.46-.06.29.31c.16,0,.06.33.27.31-.1.29.18.2.27.3s.07.29.25.29.12.23.24.28,0,.32.23.27c.05.11.17.14.21.26.35-.19.15.15.2.25s.32,0,.19.24c.27-.14.16.1.17.22s.21,0,.15.21c.2-.08,0,.2.14.2s.1.12.13.19.11.07.1.17a1.19,1.19,0,0,1,.09.15C29.75,58.73,29.8,58.92,29.73,59Z"/><path d="M33,55.73c-.08.07-.27,0-.56-.14l-.16-.09a.37.37,0,0,1-.17-.1c0-.15-.28.08-.18-.13s-.11-.11-.2-.14-.06-.18-.21-.15.08-.35-.23-.17a.39.39,0,0,1-.24-.19c.08-.22-.14-.15-.25-.2.1-.26-.05-.26-.26-.22.17-.32,0-.37-.27-.22-.09-.08-.08-.26-.28-.24s-.24-.12-.29-.26c-.25.07-.34,0-.29-.26-.27.08-.3-.09-.31-.28s-.35,0-.31-.28-.25-.17-.32-.3-.06-.36-.33-.31-.31-.11-.33-.31c-.29.08-.32-.12-.33-.33s-.12-.32-.34-.33-.31-.14-.34-.34-.12-.34-.34-.34-.18-.27-.33-.34c.06-.28-.28-.16-.33-.33s-.11-.32-.31-.33-.28-.15-.31-.33c-.37.16-.14-.28-.29-.32,0-.21-.22-.18-.29-.31s-.07-.32-.28-.31-.27-.1-.26-.3c-.23,0-.07-.29-.25-.29a.92.92,0,0,1-.24-.28c.12-.29-.14-.2-.23-.27s-.28,0-.22-.26,0-.26-.19-.25.16-.45-.19-.24c-.12,0,.08-.34-.17-.22s-.11-.15-.16-.21-.09-.14-.14-.2c-.39-.58-.56-1-.45-1.08s.58.11,1.27.6c.07,0,.28,0,.21.16s.24,0,.23.17c.26-.13.17.1.23.18s.1.2.25.2.1.22.26.22c0,.2.08.25.28.23,0,.2.19.14.28.24-.09.26.12.23.29.25s.15.21.29.26.24.15.31.28.31.08.31.29c.16,0,.22.19.32.29s.2.22.33.31,0,.4.33.31c.13.09.18.25.33.33a.73.73,0,0,0,.34.33c-.08.31.15.3.34.34a.66.66,0,0,1,.34.34,2.12,2.12,0,0,1,.33.34c.17,0,.14.31.33.34s.12.3.31.33.3.12.31.32,0,.39.29.32.46-.06.29.31c.17,0,.06.33.27.31-.1.29.18.2.27.3s.08.29.25.29.12.23.24.28,0,.32.23.27c.05.11.18.14.21.26.35-.19.15.15.2.25s.32,0,.19.24c.27-.14.16.11.17.22s.21,0,.16.22c.2-.09,0,.19.14.2,0,.14.09.11.12.18s.11.07.11.17l.08.15C33,55.46,33.07,55.65,33,55.73Z"/><path d="M36.27,52.45c-.07.08-.27,0-.56-.13l-.15-.09a.37.37,0,0,1-.18-.11c.06-.15-.28.08-.18-.12s-.11-.12-.2-.14-.06-.19-.21-.16.08-.34-.23-.17c-.12,0-.17-.1-.23-.19s-.15-.15-.25-.2c.1-.25-.06-.25-.26-.21.16-.33,0-.37-.27-.23-.1-.08-.09-.26-.29-.24s-.24-.12-.28-.25c-.26.07-.35,0-.3-.27-.27.08-.3-.08-.31-.27s-.35-.05-.31-.29-.24-.16-.32-.3-.06-.36-.33-.3-.31-.11-.33-.32c-.29.08-.32-.11-.33-.32s-.12-.32-.34-.33-.31-.15-.34-.34-.12-.34-.34-.35-.17-.27-.33-.33c.06-.29-.28-.17-.33-.34s-.11-.32-.31-.33-.28-.15-.31-.33c-.37.17-.13-.27-.29-.31,0-.22-.22-.19-.29-.32s-.07-.32-.27-.3-.28-.11-.27-.3c-.22,0-.07-.3-.25-.29a1.05,1.05,0,0,1-.24-.28c.12-.3-.13-.21-.23-.27s-.28,0-.21-.26,0-.26-.2-.25.16-.45-.19-.24c-.12,0,.08-.35-.17-.23s-.1-.14-.15-.21l-.15-.2c-.39-.57-.56-1-.45-1.07s.58.1,1.27.6c.07,0,.28,0,.21.15s.25,0,.23.17c.26-.12.17.11.24.19s.09.2.25.2.1.21.26.21c0,.2.07.26.27.23,0,.2.19.15.28.24-.09.27.12.23.29.25s.16.22.3.27.23.15.3.27.32.09.31.29c.16,0,.22.19.32.3s.2.22.33.3,0,.41.33.32c.13.08.19.25.33.32s.17.28.34.33c-.08.31.15.31.34.35a.63.63,0,0,1,.34.34,1.33,1.33,0,0,1,.33.34c.17,0,.14.3.33.33s.13.31.31.33.3.13.31.33,0,.38.29.32.46-.06.29.31c.17,0,.07.33.28.31-.11.29.18.19.26.29s.08.29.25.29.13.23.24.28,0,.32.23.27c.06.11.18.15.22.26.34-.19.15.16.2.25s.32,0,.18.24c.27-.13.16.11.17.23s.21,0,.16.21c.2-.08,0,.19.14.2s.1.11.12.18a.15.15,0,0,1,.11.18l.09.15C36.3,52.18,36.35,52.38,36.27,52.45Z"/><path d="M39.54,49.18c-.07.07-.27,0-.56-.14L38.83,49a.28.28,0,0,1-.17-.11c.05-.14-.29.09-.19-.12s-.11-.11-.2-.14-.05-.18-.21-.15.08-.35-.22-.18c-.13,0-.18-.1-.24-.18s-.15-.15-.25-.2c.1-.26-.06-.26-.26-.22.16-.32,0-.37-.27-.22-.09-.08-.09-.26-.28-.24s-.24-.12-.29-.26c-.26.07-.34,0-.3-.26-.27.08-.3-.09-.31-.28s-.35,0-.31-.28-.24-.17-.32-.3,0-.36-.32-.31-.32-.11-.33-.31c-.3.07-.32-.12-.34-.33s-.12-.32-.34-.33-.3-.14-.34-.34-.12-.34-.34-.34-.17-.28-.33-.34c.06-.28-.28-.16-.32-.33s-.12-.32-.32-.33-.28-.15-.3-.33c-.38.16-.14-.28-.3-.32,0-.21-.22-.18-.29-.31s-.07-.32-.27-.31-.28-.1-.27-.3c-.22,0-.07-.29-.25-.29a1.08,1.08,0,0,1-.24-.28c.12-.29-.13-.2-.23-.27s-.28,0-.21-.26,0-.26-.2-.25.16-.45-.19-.24c-.11,0,.08-.34-.17-.22s-.1-.15-.15-.21l-.14-.2c-.4-.58-.57-1-.46-1.08s.59.11,1.27.6c.07.05.28,0,.22.16s.24,0,.22.17c.26-.13.18.1.24.18s.09.2.25.2.1.22.26.22c0,.2.08.25.27.23,0,.2.2.14.28.24-.09.26.13.23.29.25s.16.21.3.26.24.15.3.28.32.08.32.29c.16,0,.21.19.31.29s.2.22.33.31,0,.4.33.31c.13.09.19.25.34.33a.7.7,0,0,0,.33.33c-.08.31.15.3.35.34a.64.64,0,0,1,.33.34,1.82,1.82,0,0,1,.34.34c.16.05.13.31.32.34s.13.3.31.33.3.12.31.32,0,.39.3.32.46-.06.28.31c.17,0,.07.33.28.31-.1.29.18.2.26.3s.08.29.26.29.12.22.24.28,0,.32.22.27c.06.11.18.14.22.26.34-.19.15.15.2.25s.32,0,.18.24c.27-.14.17.1.17.22s.22,0,.16.22c.2-.09,0,.19.14.19s.1.12.12.19a.14.14,0,0,1,.11.17l.09.15C39.57,48.91,39.62,49.1,39.54,49.18Z"/><path d="M42.81,45.9c-.07.08-.27,0-.56-.14l-.15-.08a.34.34,0,0,1-.17-.11c0-.15-.29.08-.19-.12s-.11-.12-.2-.14-.06-.19-.21-.16.08-.34-.22-.17a.34.34,0,0,1-.24-.19c.07-.22-.15-.15-.25-.2.1-.25-.06-.25-.26-.21.16-.33,0-.37-.27-.23-.1-.08-.09-.26-.28-.24s-.24-.12-.29-.25c-.26.07-.34,0-.3-.27-.27.08-.3-.09-.31-.27s-.35,0-.31-.29-.24-.16-.32-.3-.05-.36-.32-.3-.32-.11-.33-.32c-.3.08-.32-.11-.34-.32s-.12-.33-.34-.33-.3-.15-.34-.34-.12-.34-.34-.35-.17-.27-.33-.33c.07-.29-.28-.17-.32-.34s-.12-.32-.32-.33a.46.46,0,0,1-.3-.33c-.38.17-.14-.27-.3-.31,0-.22-.22-.19-.29-.32s-.07-.32-.27-.3-.28-.11-.27-.3c-.22,0-.06-.3-.25-.29a1.61,1.61,0,0,1-.24-.28c.13-.3-.13-.21-.22-.27s-.28-.05-.22-.26,0-.27-.2-.25.16-.45-.19-.24c-.11,0,.09-.35-.16-.23s-.11-.14-.16-.21l-.14-.2c-.39-.58-.57-1-.46-1.07s.59.1,1.28.59c.06.05.27,0,.21.16s.24,0,.22.17c.27-.12.18.1.24.19s.1.2.25.2.1.21.26.21c0,.2.08.26.27.23,0,.2.2.15.28.24-.09.27.13.23.29.25s.16.22.3.27.24.14.3.27.32.09.32.29c.16,0,.21.19.32.3s.2.21.32.3,0,.41.33.32c.13.08.19.25.34.32a.63.63,0,0,0,.33.33c-.08.31.16.31.35.34a.68.68,0,0,1,.34.35,1.52,1.52,0,0,1,.33.34c.17,0,.13.3.32.33s.13.31.32.33.29.12.3.33,0,.38.3.32.46-.06.28.31c.17,0,.07.32.28.3-.11.3.18.2.26.3s.08.29.26.29.12.23.24.28,0,.32.22.27c.06.11.18.15.22.26.34-.19.15.16.2.25s.32,0,.18.24c.27-.13.17.11.17.23s.21,0,.16.21c.2-.08,0,.19.14.2s.1.11.12.18a.14.14,0,0,1,.11.17l.09.16C42.84,45.63,42.89,45.83,42.81,45.9Z"/><path d="M46.08,42.63c-.07.07-.26,0-.56-.14l-.15-.09a.32.32,0,0,1-.17-.11c0-.14-.29.09-.19-.12s-.1-.11-.19-.14-.06-.18-.22-.15.09-.35-.22-.18c-.12,0-.18-.1-.24-.18s-.15-.15-.25-.2c.1-.26-.06-.26-.26-.22.16-.32,0-.37-.27-.23-.09-.07-.09-.25-.28-.24s-.24-.11-.29-.25c-.26.07-.34,0-.3-.26-.27.08-.3-.09-.3-.28s-.36,0-.32-.29-.24-.16-.31-.29-.06-.36-.33-.31-.32-.11-.33-.31c-.29.07-.32-.12-.34-.33s-.12-.32-.33-.33-.31-.14-.34-.34-.12-.34-.34-.34-.18-.28-.34-.34c.07-.28-.27-.16-.32-.34s-.12-.31-.31-.33-.28-.14-.31-.32c-.37.16-.14-.28-.3-.32,0-.22-.22-.18-.28-.31s-.07-.32-.28-.31-.27-.1-.26-.3c-.23,0-.07-.29-.25-.29a.92.92,0,0,1-.24-.28c.12-.29-.14-.2-.23-.27s-.28,0-.22-.26,0-.26-.2-.25.16-.45-.18-.24c-.12,0,.08-.35-.17-.22s-.11-.15-.16-.21-.09-.14-.14-.2c-.39-.58-.56-1-.45-1.08s.58.11,1.27.6c.07,0,.27,0,.21.16s.24,0,.23.17c.26-.13.17.1.23.18s.1.2.25.2.1.22.26.22c0,.2.08.25.27.23,0,.2.2.14.28.24-.09.26.13.23.29.25s.16.21.3.26.24.15.31.28.31.08.31.29c.16,0,.21.19.32.29s.2.22.32.31,0,.4.33.31c.14.09.19.25.34.33a.68.68,0,0,0,.34.33c-.09.31.15.3.34.34a.7.7,0,0,1,.34.34,2.12,2.12,0,0,1,.33.34c.17,0,.14.3.32.33s.13.31.32.33.3.13.3.33,0,.39.3.32.46-.06.29.31c.16,0,.06.33.27.31-.1.29.18.2.27.3s.07.28.25.29.12.22.24.28,0,.32.22.27c.06.11.18.14.22.26.34-.19.15.15.2.25s.32,0,.18.24c.28-.14.17.1.18.22s.21,0,.15.22c.2-.09,0,.19.14.19,0,.15.1.11.12.19s.12.07.11.17l.09.15C46.11,42.36,46.16,42.55,46.08,42.63Z"/><path d="M49.36,39.35c-.08.08-.27,0-.57-.14l-.15-.09a.3.3,0,0,1-.17-.1c.05-.15-.28.08-.18-.12s-.11-.12-.2-.14-.06-.19-.22-.16.09-.34-.22-.17a.36.36,0,0,1-.24-.19c.08-.22-.15-.15-.25-.2.1-.25,0-.26-.26-.21.16-.33,0-.37-.27-.23-.09-.08-.08-.26-.28-.24s-.24-.12-.29-.25c-.25.07-.34,0-.3-.27-.27.08-.29-.09-.3-.27s-.35,0-.31-.29-.25-.16-.32-.3-.06-.36-.33-.3-.31-.11-.33-.32c-.29.08-.32-.11-.33-.32s-.12-.33-.34-.33-.31-.15-.34-.34S43,34,42.82,34s-.18-.27-.33-.34c.06-.28-.28-.16-.33-.33s-.11-.32-.31-.33-.28-.15-.31-.33c-.37.17-.14-.27-.3-.32,0-.21-.21-.18-.28-.31s-.07-.32-.28-.3-.27-.11-.26-.3c-.23,0-.07-.3-.25-.29a1.05,1.05,0,0,1-.24-.28c.12-.3-.14-.21-.23-.27s-.28-.05-.21-.26-.05-.27-.2-.25.16-.45-.19-.24c-.12,0,.08-.35-.17-.23s-.1-.14-.16-.21a1.43,1.43,0,0,0-.14-.2c-.39-.58-.56-1-.45-1.07s.58.1,1.27.59c.07.05.28,0,.21.16s.24,0,.23.17c.26-.12.17.1.24.19s.09.2.25.2.1.21.26.21c0,.2.07.25.27.23,0,.2.19.15.28.24-.09.27.12.23.29.25s.15.22.29.27.24.14.31.27.31.09.31.29c.16,0,.22.19.32.3s.2.21.33.3,0,.41.33.32c.13.08.18.25.33.32s.17.28.34.33c-.08.31.15.31.34.34a.65.65,0,0,1,.34.35,1.72,1.72,0,0,1,.33.33c.17.06.14.31.33.34s.12.31.31.33.3.12.31.33,0,.38.29.32.46-.06.29.31c.16,0,.06.32.27.3-.1.3.18.2.27.3s.07.29.25.29.12.23.24.28,0,.32.23.27c0,.11.18.15.21.26.35-.19.15.16.2.25s.32,0,.19.24c.27-.13.16.11.17.23s.21,0,.15.21c.2-.08,0,.19.14.2s.1.11.13.18.11.08.1.17.07.11.09.16C49.38,39.08,49.43,39.28,49.36,39.35Z"/><path d="M52.63,36.08c-.08.07-.27,0-.56-.14l-.16-.09a.32.32,0,0,1-.17-.11c0-.14-.28.09-.18-.12s-.11-.11-.2-.14-.06-.18-.21-.16.08-.34-.23-.17c-.12,0-.17-.1-.24-.18s-.14-.15-.25-.2c.11-.26,0-.26-.26-.22.17-.32,0-.37-.27-.23-.09-.07-.08-.25-.28-.24s-.24-.11-.29-.25c-.25.07-.34,0-.29-.26-.27.08-.3-.09-.31-.28s-.35,0-.31-.29-.25-.16-.32-.29-.06-.36-.33-.31-.31-.11-.33-.31c-.29.07-.32-.12-.33-.33s-.12-.32-.34-.33-.31-.15-.34-.34-.12-.34-.34-.34-.18-.28-.33-.34c.06-.29-.28-.16-.32-.34s-.12-.31-.32-.33-.28-.14-.31-.32c-.37.16-.13-.28-.29-.32,0-.22-.22-.19-.29-.31s-.07-.32-.27-.31-.28-.1-.27-.3c-.22,0-.07-.29-.25-.29a1.08,1.08,0,0,1-.24-.28c.12-.29-.13-.2-.23-.27s-.28,0-.21-.26,0-.26-.2-.25.16-.45-.19-.24c-.12,0,.08-.35-.17-.22s-.1-.15-.15-.22L41.91,26c-.4-.58-.57-1-.46-1.08s.59.11,1.27.6c.07.05.28,0,.21.15s.25,0,.23.18c.26-.13.18.1.24.18s.09.2.25.2.1.21.26.22c0,.2.07.25.27.22,0,.21.19.15.28.25-.09.26.12.23.29.25s.16.21.29.26.24.15.31.28.31.08.31.28c.16.05.22.2.32.3s.2.22.33.31,0,.4.33.31c.13.09.19.25.33.33a.73.73,0,0,0,.34.33c-.08.31.15.3.34.34a.66.66,0,0,1,.34.34,1.52,1.52,0,0,1,.33.34c.17.05.14.3.33.33s.12.31.31.33.3.13.31.33,0,.38.29.32.46-.06.29.31c.17,0,.06.33.28.31-.11.29.17.2.26.3s.08.28.25.29.13.22.24.28,0,.31.23.27c0,.11.18.14.21.26.35-.19.15.15.2.25s.32,0,.19.24c.27-.14.16.1.17.22s.21,0,.16.21c.2-.08,0,.2.13.2s.11.11.13.19.11.07.11.17a1.09,1.09,0,0,1,.08.15C52.65,35.8,52.71,36,52.63,36.08Z"/><path d="M55.9,32.8c-.07.07-.27,0-.56-.14l-.16-.09a.3.3,0,0,1-.17-.1c.06-.15-.28.08-.18-.13s-.11-.11-.2-.14-.06-.18-.21-.15.08-.35-.23-.17c-.12,0-.17-.1-.23-.19s-.15-.15-.25-.2c.1-.25-.06-.26-.26-.21.16-.33,0-.37-.27-.23-.1-.08-.09-.26-.28-.24s-.24-.12-.29-.25c-.26.07-.34,0-.3-.27C52,30.37,52,30.2,52,30s-.35-.05-.31-.29-.24-.16-.32-.3-.06-.36-.32-.3-.32-.12-.33-.32c-.3.08-.33-.11-.34-.32s-.12-.33-.34-.34-.3-.14-.34-.33-.12-.34-.34-.35-.17-.27-.33-.34c.06-.28-.28-.16-.32-.33s-.12-.32-.32-.33-.28-.15-.3-.33c-.38.17-.14-.27-.3-.32,0-.21-.22-.18-.29-.31s-.07-.32-.27-.3-.28-.11-.27-.3c-.22,0-.07-.3-.25-.29a1.27,1.27,0,0,1-.24-.28c.13-.3-.13-.21-.23-.27S46,24,46,23.8s0-.26-.2-.24.16-.45-.19-.24c-.11,0,.08-.35-.17-.23s-.1-.14-.15-.21l-.14-.2c-.4-.58-.57-1-.46-1.07s.59.1,1.28.59c.06.05.27,0,.21.16s.24,0,.22.17c.27-.13.18.1.24.19s.09.2.25.2.1.21.26.21c0,.2.07.25.27.23,0,.2.2.15.28.24-.09.27.13.23.29.25s.16.22.3.27.23.14.3.27.32.08.32.29c.15,0,.21.19.32.29s.2.22.32.31,0,.41.33.32c.13.08.19.25.34.32a.63.63,0,0,0,.33.33c-.08.31.15.3.34.34a.63.63,0,0,1,.34.34,1.82,1.82,0,0,1,.34.34c.16.06.13.31.32.34s.13.3.31.33.3.12.31.32,0,.39.3.32.46,0,.28.32c.17,0,.07.32.28.3-.11.3.18.2.26.3s.08.29.25.29.13.23.24.28,0,.32.23.27c.06.11.18.15.22.26.34-.19.15.16.2.25s.32,0,.18.24c.27-.13.16.11.17.23s.21,0,.16.21c.2-.08,0,.19.14.2,0,.15.1.11.12.18a.14.14,0,0,1,.11.17l.09.16C55.93,32.53,56,32.72,55.9,32.8Z"/><path d="M59.17,29.52c-.07.08-.27,0-.56-.13l-.15-.09a.28.28,0,0,1-.17-.11c.05-.14-.29.09-.19-.12s-.1-.11-.2-.14,0-.18-.21-.16.09-.34-.22-.17c-.12,0-.18-.1-.24-.18s-.15-.15-.25-.2c.1-.26-.06-.26-.26-.22.16-.32,0-.37-.27-.23-.09-.07-.09-.25-.28-.24s-.24-.11-.29-.25c-.26.07-.34,0-.3-.26-.27.08-.3-.09-.3-.28s-.36,0-.32-.29-.24-.16-.32-.29,0-.36-.32-.31-.32-.11-.33-.31c-.3.07-.32-.12-.34-.33s-.12-.32-.33-.33-.31-.15-.35-.34-.11-.34-.34-.34-.17-.28-.33-.34c.07-.29-.27-.17-.32-.34s-.12-.31-.32-.33-.27-.14-.3-.32c-.37.16-.14-.28-.3-.32,0-.22-.22-.19-.28-.31s-.08-.32-.28-.31-.27-.1-.26-.3c-.23,0-.07-.29-.26-.29a1.61,1.61,0,0,1-.24-.28c.13-.29-.13-.2-.22-.27s-.28,0-.22-.26,0-.26-.2-.25.16-.45-.18-.24c-.12,0,.08-.35-.17-.22s-.11-.15-.16-.22l-.14-.2c-.39-.57-.57-1-.45-1.07s.58.1,1.27.6c.06.05.27,0,.21.15s.24,0,.23.18c.26-.13.17.1.23.18s.1.2.25.2.1.21.26.22c0,.2.08.25.27.22,0,.21.2.15.28.24-.09.27.13.24.29.26s.16.21.3.26.24.15.31.28.31.08.31.28c.16.05.21.2.32.3s.2.22.32.31,0,.4.33.31c.14.08.19.25.34.33a.68.68,0,0,0,.34.33c-.09.31.15.3.34.34a.7.7,0,0,1,.34.34,1.77,1.77,0,0,1,.33.34c.17.05.13.3.32.33s.13.31.32.33.3.13.3.33,0,.38.3.32.46-.06.29.31c.16,0,.06.33.27.31-.1.29.18.2.26.3s.08.28.26.29.12.22.24.28,0,.31.22.27.18.14.22.26c.34-.19.15.15.2.25s.32,0,.18.24c.28-.14.17.1.18.22s.21,0,.15.21c.2-.08,0,.2.14.2,0,.15.1.11.12.19s.12.07.11.17L59,29C59.2,29.25,59.25,29.45,59.17,29.52Z"/><path d="M62.45,26.25c-.08.07-.27,0-.57-.14a.6.6,0,0,1-.15-.09.3.3,0,0,1-.17-.1c0-.15-.28.08-.18-.13s-.11-.11-.2-.14-.06-.18-.22-.15.09-.35-.22-.17a.36.36,0,0,1-.24-.19c.08-.22-.15-.15-.25-.2.1-.25,0-.26-.26-.21.16-.33,0-.37-.27-.23-.09-.08-.08-.26-.28-.24s-.24-.12-.29-.25c-.25.07-.34,0-.3-.27-.27.08-.29-.09-.3-.28s-.35,0-.32-.28-.24-.17-.31-.3-.06-.36-.33-.3-.31-.12-.33-.32c-.29.08-.32-.12-.33-.32s-.13-.33-.34-.34-.31-.14-.34-.34-.12-.33-.34-.34-.18-.27-.33-.34c.06-.28-.28-.16-.33-.33s-.11-.32-.31-.33-.28-.15-.31-.33c-.37.17-.14-.27-.3-.32,0-.21-.21-.18-.28-.31s-.07-.32-.28-.31-.27-.1-.26-.29c-.23,0-.07-.3-.25-.29a1.05,1.05,0,0,1-.24-.28c.12-.3-.14-.21-.23-.28s-.28,0-.21-.26,0-.26-.2-.25.16-.44-.19-.23c-.12,0,.08-.35-.17-.23s-.11-.15-.16-.21-.09-.14-.14-.2c-.39-.58-.56-1-.45-1.07s.58.1,1.27.59c.07,0,.28,0,.21.16s.24,0,.23.17c.26-.13.17.1.23.19s.1.2.25.2.1.21.26.21c0,.2.08.25.28.23,0,.2.19.15.27.24-.09.27.13.23.3.25s.15.21.29.27.24.14.31.27.31.08.31.29c.16,0,.22.19.32.29s.2.22.33.31,0,.4.33.32c.13.08.18.25.33.32a.65.65,0,0,0,.34.33c-.08.31.15.3.34.34a.66.66,0,0,1,.34.34,2.12,2.12,0,0,1,.33.34c.17.06.14.31.32.34s.13.3.32.33.3.12.3.32,0,.39.3.32.46-.05.29.32c.16,0,.06.32.27.3-.1.3.18.2.27.3s.07.29.25.29.12.23.24.28,0,.32.23.27c0,.11.17.14.21.26.35-.19.15.16.2.25s.32,0,.19.24c.27-.13.16.11.17.23s.21,0,.15.21c.2-.09,0,.19.14.2s.1.11.13.18.11.08.1.17l.09.16C62.47,26,62.52,26.17,62.45,26.25Z"/><path d="M65.72,23c-.08.08-.27,0-.56-.13L65,22.75a.39.39,0,0,1-.17-.11c0-.15-.28.09-.18-.12s-.11-.12-.2-.14-.06-.18-.21-.16.08-.34-.23-.17c-.12,0-.18-.1-.24-.19s-.14-.14-.25-.19c.1-.26-.05-.26-.26-.22.16-.32.05-.37-.27-.23-.09-.07-.08-.25-.28-.24s-.24-.12-.29-.25c-.25.07-.34,0-.3-.26-.26.07-.29-.09-.3-.28s-.35-.05-.31-.29-.25-.16-.32-.29-.06-.36-.33-.31-.31-.11-.33-.31c-.29.07-.32-.12-.33-.33s-.12-.32-.34-.33-.31-.15-.34-.34-.12-.34-.34-.34-.18-.28-.33-.34c.06-.29-.28-.17-.33-.34s-.11-.31-.31-.33-.28-.14-.31-.32c-.37.16-.14-.28-.29-.32,0-.22-.22-.19-.29-.32s-.07-.31-.27-.3-.28-.1-.27-.3c-.22,0-.07-.29-.25-.29a1.05,1.05,0,0,1-.24-.28c.12-.29-.13-.2-.23-.27s-.28,0-.21-.26-.05-.26-.2-.25.16-.45-.19-.24c-.12,0,.08-.35-.17-.22s-.1-.15-.16-.22l-.13-.2c-.4-.57-.57-1-.46-1.07s.58.1,1.27.6c.07,0,.28,0,.21.15s.25,0,.23.17c.26-.12.17.11.24.19s.09.2.25.2.1.21.26.22c0,.2.07.25.27.22,0,.2.19.15.28.24-.09.27.12.24.29.26s.16.21.29.26.24.15.31.28.31.08.31.28c.16.05.22.2.32.3s.2.22.33.31,0,.4.33.31c.13.08.18.25.33.33a.73.73,0,0,0,.34.33c-.08.3.15.3.34.34a.66.66,0,0,1,.34.34,1.52,1.52,0,0,1,.33.34c.17.05.14.3.33.33s.12.31.31.33.3.13.31.33,0,.38.29.32.46-.06.29.31c.17,0,.06.33.27.31-.1.29.18.2.27.3s.07.28.25.28.12.23.24.29,0,.31.23.27c0,.1.18.14.21.26.35-.19.15.15.2.25s.32,0,.19.23c.27-.13.16.11.17.23s.21,0,.15.21c.21-.08,0,.2.14.2,0,.15.1.11.13.19s.11.07.1.17a.6.6,0,0,1,.09.15C65.74,22.7,65.79,22.9,65.72,23Z"/><path d="M69,19.7c-.07.07-.27,0-.56-.14l-.16-.09a.3.3,0,0,1-.17-.1c.05-.15-.28.08-.18-.13s-.11-.11-.2-.14-.06-.18-.21-.15.08-.35-.23-.17c-.12,0-.17-.11-.24-.19s-.14-.15-.24-.2c.1-.26-.06-.26-.26-.21.16-.33,0-.37-.28-.23-.09-.08-.08-.26-.27-.24s-.24-.12-.29-.25c-.26.07-.35,0-.3-.27-.27.08-.3-.09-.31-.28s-.35,0-.31-.28-.24-.17-.32-.3-.06-.36-.32-.3-.32-.12-.34-.32c-.29.08-.32-.12-.33-.33s-.12-.32-.34-.33-.31-.14-.34-.34-.12-.33-.34-.34-.17-.27-.33-.34c.06-.28-.28-.16-.32-.33s-.12-.32-.32-.33-.28-.15-.3-.33c-.38.17-.14-.27-.3-.32,0-.21-.22-.18-.29-.31s-.07-.32-.27-.31-.28-.1-.27-.29c-.22,0-.07-.3-.25-.29a1.27,1.27,0,0,1-.24-.28c.12-.3-.13-.21-.23-.28s-.28,0-.21-.26,0-.26-.2-.25.16-.44-.19-.23c-.11,0,.08-.35-.17-.23s-.1-.15-.15-.21l-.14-.2c-.4-.58-.57-1-.46-1.07s.59.1,1.27.59c.07.05.28,0,.22.16s.24,0,.22.17c.26-.13.18.1.24.19s.09.2.25.2.1.21.26.21c0,.2.07.25.27.23,0,.2.2.14.28.24-.09.27.13.23.29.25s.16.21.3.26.23.15.3.28.32.08.32.29c.15,0,.21.19.31.29s.2.22.33.31,0,.4.33.32c.13.08.19.25.33.32a.68.68,0,0,0,.34.33c-.08.31.15.3.34.34a.63.63,0,0,1,.34.34,2.19,2.19,0,0,1,.34.34c.16.06.13.31.32.34s.13.3.31.33.3.12.31.32,0,.39.3.32.46-.05.28.32c.17,0,.07.32.28.3-.11.3.18.2.26.3s.08.29.25.29.13.23.24.28,0,.32.23.27c.06.11.18.14.22.26.34-.19.15.16.19.25s.33,0,.19.24c.27-.13.16.11.17.23s.21,0,.16.21c.2-.09,0,.19.14.2,0,.14.1.11.12.18a.14.14,0,0,1,.11.17l.09.16C69,19.43,69.07,19.62,69,19.7Z"/><path d="M74.27,74.33a7.38,7.38,0,0,1-2.32.3l-.81,0a6.81,6.81,0,0,1-.92,0c-.32-.14-.66.26-1,0a4.33,4.33,0,0,0-1.13,0,6.3,6.3,0,0,0-1.22,0c-.42.28-.86-.3-1.31,0a6.62,6.62,0,0,1-1.41,0c-.49-.21-1,0-1.5,0a2,2,0,0,0-1.57,0,1.48,1.48,0,0,0-1.66,0,6.62,6.62,0,0,0-1.72,0,13.48,13.48,0,0,1-1.8,0,2.85,2.85,0,0,1-1.87,0,3.51,3.51,0,0,1-1.93,0c-.65-.14-1.32.21-2,0-.67,0-1.35.06-2,0a4.65,4.65,0,0,0-2.1,0,7.66,7.66,0,0,1-2.14,0,4.07,4.07,0,0,1-2.19,0,16.45,16.45,0,0,0-2.22,0c-.75,0-1.51.11-2.27,0a7.14,7.14,0,0,0-2.26,0,15.08,15.08,0,0,1-2.23,0c-.73-.24-1.46.08-2.18,0a13.92,13.92,0,0,0-2.14,0,9.21,9.21,0,0,1-2.1,0c-.69.38-1.37-.1-2,0a12,12,0,0,0-2,0,13.85,13.85,0,0,0-1.93,0,10.59,10.59,0,0,1-1.87,0c-.61.19-1.21-.16-1.8,0s-1.16,0-1.73,0c-.56-.3-1.11,0-1.65,0a5.22,5.22,0,0,1-1.58,0,5.34,5.34,0,0,0-1.49,0c-.48,0-1-.43-1.41,0-.45.07-.89-.3-1.31,0s-.83,0-1.23,0l-1.12,0C1.85,74.63,0,74.48,0,74.33s2.28-.35,6.19-.48c.4,0,.8-.22,1.23,0a4.76,4.76,0,0,1,1.31,0c.46-.28.93,0,1.41,0a7.47,7.47,0,0,0,1.49,0c.52-.16,1,.08,1.58,0a2.82,2.82,0,0,0,1.65,0,5.91,5.91,0,0,0,1.73,0,3.07,3.07,0,0,0,1.8,0c.61-.09,1.24,0,1.87,0s1.28-.06,1.93,0a5.32,5.32,0,0,1,2,0,17.33,17.33,0,0,1,2,0,18.37,18.37,0,0,1,2.1,0c.7-.06,1.42.26,2.14,0,.72,0,1.45,0,2.18,0a15.1,15.1,0,0,0,2.23,0,4.44,4.44,0,0,0,2.26,0,14.34,14.34,0,0,1,2.27,0c.74,0,1.49,0,2.22,0s1.47.11,2.19,0,1.44.13,2.14,0a6.72,6.72,0,0,1,2.1,0,5.83,5.83,0,0,0,2,0c.67-.05,1.34-.36,2,0,.65-.09,1.3.19,1.93,0,.63.29,1.25,0,1.87,0a6,6,0,0,0,1.8,0,12.29,12.29,0,0,1,1.72,0c.57-.16,1.12.21,1.66,0,.54,0,1.06,0,1.57,0,.52-.38,1,0,1.5,0s1-.25,1.41,0c.45-.29.89,0,1.31,0s.83-.12,1.22,0c.39-.2.77.11,1.13,0a3.55,3.55,0,0,0,1,0,2.35,2.35,0,0,1,.92,0L72,74A6.83,6.83,0,0,1,74.27,74.33Z"/></g></g></svg>