<svg xmlns="http://www.w3.org/2000/svg" viewBox="0 0 84.3 58.93"><defs><style>.cls-1{fill:none;}</style></defs><g fill="#facc15" id="Layer_2" data-name="Layer 2"><g id="_78" data-name="78"><path d="M48.56,41.38a5.77,5.77,0,0,1-1.24-.87c-.8-.57-2-1.46-3.55-2.44-.54-.32-1.11-.67-1.74-1l-1-.51c-.34-.18-.69-.35-1-.55-.66-.5-1.6-.51-2.32-1.1s-1.66-.82-2.54-1.39a3.8,3.8,0,0,1-.63-.51c-.19-.19-.35-.37-.53-.56a10.63,10.63,0,0,0-1.13-1.09,4.5,4.5,0,0,1-1.13-1.17,8.08,8.08,0,0,0-.54-.65,2.93,2.93,0,0,0-.66-.54c-.84-.78-1.63-1.66-2.45-2.55A19.48,19.48,0,0,0,25.5,23.7a12.73,12.73,0,0,0-2.7-2.9,8.8,8.8,0,0,0-2.82-3c-1-1-1.85-2.2-3-3.19s-2.08-2.13-3.08-3.3a15,15,0,0,1-1.7-1.59,19.14,19.14,0,0,1-1.52-1.81A14.28,14.28,0,0,1,9,6.23C8.42,5.63,7.89,5,7.36,4.39c-.91-1-1.93-2-3.08-3.14L3.42.4,3.2.19,3.1.08,3,0,3,0h0l.54.11c.74.15,1.55.34,2.35.57l.55.12L7,.93l1,.23,1,.24.25.05.16,0,.31.09c.42.11.84.21,1.26.33l1.26.4c1.65.63,3.27,1.36,5,1.88a24.33,24.33,0,0,1,4.87,2.49,18.57,18.57,0,0,1,4.67,3c1.54,1,2.93,2.3,4.53,3.28,1.5,1.14,3.12,2.09,4.64,3.21a27.16,27.16,0,0,0,4.83,2.86c.42.19.85.38,1.26.59l1.23.64c.4.21.81.43,1.22.63l.62.29.32.14.08,0,.1.05.22.11a5.38,5.38,0,0,1,1.17,1.23,14.66,14.66,0,0,1,.8,1.26,19.8,19.8,0,0,1,1.23,2.49,27.34,27.34,0,0,0,2.43,4.69c.47.72,1,1.42,1.48,2.1l.39.5c.13.17.25.34.39.51l.19.25.1.12,0,.06v0l.08.14h0l0,0,.06-.05.09-.09.08-.06.33-.13a6.38,6.38,0,0,1,.66-.22l.68-.14A25.33,25.33,0,0,1,58.89,34l.34,0,.34,0c.22,0,.44,0,.66.06.44.06.89.09,1.32.18s.87.18,1.29.29c.22.06.42.14.63.21a6.5,6.5,0,0,1,.61.25l.6.26c.2.1.38.21.57.32.38.21.72.49,1.07.73.18.13.33.28.5.41s.33.27.48.42c.32.28.64.55,1,.84a15.43,15.43,0,0,1,1.55,2,8,8,0,0,1,1,2.25,6.68,6.68,0,0,1,.6,2.35c.08.8.07,1.59.11,2.37a11.69,11.69,0,0,1-1,4.45c-.44.63-.79,1.26-1.17,1.88A11.67,11.67,0,0,1,68.06,55a19.15,19.15,0,0,1-1.55,1.44,6.27,6.27,0,0,1-1.79,1,11.2,11.2,0,0,1-1.88.69c-.63.18-1.25.33-1.87.48a6.57,6.57,0,0,1-1.88,0,6.1,6.1,0,0,0-1.81,0,6,6,0,0,1-1.69-.48,8.61,8.61,0,0,0-1.6-.54,4,4,0,0,1-1.47-.73c-.22-.15-.42-.34-.62-.5l-.58-.52c-.19-.17-.39-.33-.56-.51l-.27-.26-.24-.27c-.16-.19-.33-.36-.48-.55l-.43-.56a13.36,13.36,0,0,1-1.42-2.6c-.15-.44-.31-.86-.41-1.29,0-.21-.12-.42-.15-.62s-.07-.41-.11-.61,0-.4-.07-.59,0-.38,0-.57,0-.37,0-.55a2.35,2.35,0,0,1,0-.26c0-.09,0-.18,0-.26,0-.34,0-.67.08-1s.07-.6.14-.87.11-.53.18-.76l.2-.65c.06-.2.15-.38.21-.54s.12-.32.19-.44c.26-.51.41-.76.44-.74s0,.1,0,.27l-.1.31c0,.13-.1.26-.14.43a13.31,13.31,0,0,0-.56,2.93,12.32,12.32,0,0,0,0,2.17A12.87,12.87,0,0,0,48.33,50a12,12,0,0,0,1.34,2.65,11.29,11.29,0,0,0,2.26,2.46,6,6,0,0,0,.58.41l.63.36a12,12,0,0,1,1.28.76,9.06,9.06,0,0,0,1.47.49c.51.12,1,.24,1.55.38a10.1,10.1,0,0,1,1.65,0,10.76,10.76,0,0,0,1.7,0,11.7,11.7,0,0,0,1.71-.39,6.55,6.55,0,0,0,1.65-.73c.5-.35,1-.65,1.54-1a6.2,6.2,0,0,0,1.41-1.25,6.59,6.59,0,0,0,2.13-3.26A5.78,5.78,0,0,0,69.89,49a14.09,14.09,0,0,0,.2-2.05,5.22,5.22,0,0,0,0-2.12,8.87,8.87,0,0,0-.67-2,18.31,18.31,0,0,0-1-1.94,12.37,12.37,0,0,0-2.13-2.55,5.2,5.2,0,0,0-.44-.35l-.45-.33c-.33-.2-.63-.42-1-.59-.17-.09-.33-.19-.5-.27l-.52-.25c-.18-.07-.36-.11-.55-.17s-.36-.12-.55-.16c-.37-.08-.74-.18-1.12-.24s-.76-.12-1.14-.19c-.19,0-.39,0-.58-.06l-.29,0-.3,0a15.69,15.69,0,0,0-2.34.33l-.58.15c-.19,0-.38.12-.56.18l-.29.1-.49.21-.49.21-.24.1-.13.06s0,0,0,0l0,0L52.93,36l-.16-.18-.11-.13-.22-.26L52,34.9c-.14-.17-.27-.35-.4-.54-.53-.73-1-1.49-1.51-2.26-1-1.53-1.54-3.32-2.55-4.87-.39-.82-.75-1.65-1.14-2.43a7.35,7.35,0,0,0-.63-1.07A2.44,2.44,0,0,0,45,23L45,23l-.05,0-.08,0-.32-.15-.63-.3-1.27-.62L40,20.59a50.72,50.72,0,0,0-4.95-2.93,49.17,49.17,0,0,1-4.71-3.26c-1.54-1.08-3-2.21-4.51-3.28s-2.94-2.16-4.54-3a45.36,45.36,0,0,0-4.69-2.43C15,5.09,13.39,4.54,11.81,3.88c-.41-.12-.81-.26-1.21-.4l-1.21-.4-.53-.16-.22,0a.5.5,0,0,0-.2,0H8.37s0,0,0,0,0,0,0,.07,0,0,0,0l.08.05.11.06c.05,0,0,0,0,0l-.06,0,0,0v0s0,0,0,0a20.2,20.2,0,0,1,1.68,1.78,17.11,17.11,0,0,0,1.66,1.74,11.21,11.21,0,0,0,1.55,1.8c.56.55,1.13,1.08,1.65,1.64a40.93,40.93,0,0,0,3,3.35c1.1,1,1.93,2.21,2.92,3.22s1.73,2.22,2.78,3.09c.88,1,1.82,2,2.65,2.94,1.15.69,1.71,1.87,2.52,2.78a18.08,18.08,0,0,1,2.39,2.59,5,5,0,0,1,.67.53,8.22,8.22,0,0,1,.57.61c.36.41.68.86,1,1.27s.73.75,1.1,1.11l.53.52c.17.15.31.32.48.47l.31.16.3.17.58.37c.19.13.38.26.58.38a4.25,4.25,0,0,0,.6.31c.74.51,1.58.78,2.29,1.18.37.17.73.35,1.06.54a9.74,9.74,0,0,1,1,.62c.63.37,1.19.75,1.72,1.11a31.94,31.94,0,0,1,3.42,2.71C48.24,41,48.6,41.34,48.56,41.38Z"/><path d="M54.36,41.74s0-.15.15-.35.16-.21.27-.33l.43-.41.39-.29.21-.16a1.26,1.26,0,0,1,.26-.13c.23,0,.26-.42.55-.28a1,1,0,0,0,.32-.09l.31-.16c.23-.1.49,0,.72-.19s.26-.1.4-.05.27.11.4-.07a1.24,1.24,0,0,1,.43-.06l.44,0a.61.61,0,0,0,.44.12,3.87,3.87,0,0,1,.48,0c.26.32.58.27.95.23a.7.7,0,0,0,.39.39.9.9,0,0,0,.58,0,3.11,3.11,0,0,1,.44.3,1.88,1.88,0,0,0,.24.14,1.56,1.56,0,0,0,.26.11c.15.1.32.18.47.3a2.59,2.59,0,0,1,.41.4,1,1,0,0,1,.53.31.85.85,0,0,1,.17.25,1.4,1.4,0,0,1,.09.31,1.23,1.23,0,0,1,.68,1,1.16,1.16,0,0,0,.29.56.81.81,0,0,1,.2.6l.06.15,0,.16.09.31a2.34,2.34,0,0,1,.12.64l0,.34a1.83,1.83,0,0,0,0,.66,2.56,2.56,0,0,0,.1.34,3.07,3.07,0,0,1,0,.68,1.61,1.61,0,0,1-.19.67,1.41,1.41,0,0,1-.42,1.33,2.56,2.56,0,0,1-.34.63,2.25,2.25,0,0,0-.34.63,5.27,5.27,0,0,0-.41.6,2.24,2.24,0,0,1-.5.52,5.33,5.33,0,0,0-.6.42,2.23,2.23,0,0,0-.52.5,1.44,1.44,0,0,1-.6.4,3.44,3.44,0,0,0-.65.28,1.14,1.14,0,0,0-.37,0,1.23,1.23,0,0,0-.31.14l-.16.09-.16.07a1.3,1.3,0,0,1-.34.08,2.62,2.62,0,0,1-.68.07,2.52,2.52,0,0,0-.67.09l-.34,0h-.34c-.11,0-.22,0-.33,0a2.07,2.07,0,0,1-.33-.1.57.57,0,0,1-.66,0l-.3-.18L57,53.7a.44.44,0,0,0-.15-.05,1.7,1.7,0,0,0-.58-.27,2.92,2.92,0,0,1-.58-.23,1.65,1.65,0,0,1-.51-.35L55,52.71l-.12-.1a.87.87,0,0,0-.27-.14l-.24-.17-.24-.18a1,1,0,0,1-.39-.44.8.8,0,0,1-.39-.42,1.08,1.08,0,0,0-.31-.47c-.06-.07-.11-.15-.16-.22s-.1-.16-.14-.24a3.07,3.07,0,0,1-.24-.48.57.57,0,0,0-.1-.52,3.48,3.48,0,0,1-.27-.44c-.09-.32-.35-.6-.23-1a3.84,3.84,0,0,1,0-.48,1.12,1.12,0,0,0-.09-.44.84.84,0,0,1,.13-.45.3.3,0,0,0-.1-.42.59.59,0,0,1,.12-.4.33.33,0,0,0,0-.4c-.21-.3.13-.5.19-.72s.07-.22.12-.33l.13-.31a5.75,5.75,0,0,1,1.27-1.83c.38-.34.62-.48.67-.42s0,.12-.06.26a1.66,1.66,0,0,1-.14.25l-.1.16-.09.18a7.2,7.2,0,0,0-.87,2.29c0,.2.1.44-.1.63a2.11,2.11,0,0,0,0,.35.51.51,0,0,1-.05.34.36.36,0,0,1,.12.36,2.2,2.2,0,0,0-.07.37c0,.12,0,.25,0,.38a.76.76,0,0,0,.11.38c.22.22,0,.54.25.77a.57.57,0,0,0,.05.43,1.07,1.07,0,0,0,.3.34.57.57,0,0,0,.18.4l.15.16a.8.8,0,0,1,.15.17.53.53,0,0,0,.18.44c.13.09.28.16.42.24a1.79,1.79,0,0,1,.36.31l.16.17a1.43,1.43,0,0,0,.21.12.84.84,0,0,0,.18.15l.1.07.11,0a2.26,2.26,0,0,1,.43.24,1.53,1.53,0,0,1,.49.1,1.21,1.21,0,0,1,.43.26l.13,0h.13l.24.06a2.8,2.8,0,0,0,.5.12,1.13,1.13,0,0,1,.26,0l.26,0,.26,0a1.13,1.13,0,0,0,.26,0,2.55,2.55,0,0,1,.54,0,.52.52,0,0,0,.51-.18,4.78,4.78,0,0,0,1-.34,3.22,3.22,0,0,0,.51-.21,1.76,1.76,0,0,0,.45-.32.75.75,0,0,0,.54-.23,3.08,3.08,0,0,0,.32-.48,2.65,2.65,0,0,1,.34-.45l.37-.42c.1-.16.18-.32.28-.48s.16-.32.25-.48c.06-.36.37-.65.34-1a1.34,1.34,0,0,1,.1-.52.88.88,0,0,0,0-.53c0-.09,0-.18,0-.26a2.34,2.34,0,0,1,0-.26,1.13,1.13,0,0,1,0-.26c0-.08,0-.17,0-.26s0-.35,0-.53a.73.73,0,0,0,0-.25l-.06-.12-.11-.1a4,4,0,0,0-.31-.41.45.45,0,0,1,0-.51,1,1,0,0,1-.21-.44.56.56,0,0,1,0-.12l-.06-.1a.52.52,0,0,0-.19-.17.49.49,0,0,0,0-.27.65.65,0,0,0-.16-.17,4.39,4.39,0,0,1-.39-.28,3.37,3.37,0,0,0-.29-.37.81.81,0,0,0-.39-.23.51.51,0,0,1-.21-.1.7.7,0,0,1-.17-.13,1,1,0,0,0-.35-.26.48.48,0,0,1-.38-.2.4.4,0,0,0-.39-.15c-.24-.14-.53-.13-.77-.25-.16.16-.28.15-.4.08s-.23-.2-.36-.21a.68.68,0,0,0-.37,0,.33.33,0,0,1-.36-.1.3.3,0,0,1-.33.14c-.12,0-.24-.09-.35-.11s-.4.21-.64.09a.28.28,0,0,1-.28.12c-.11,0-.22,0-.3,0-.23-.07-.35.13-.51.17a.6.6,0,0,1-.22.12A.73.73,0,0,1,56,41l-.4.18-.48.27c-.14.07-.25.15-.35.21S54.4,41.78,54.36,41.74Z"/><path d="M37.56,24.86s0-.12,0-.23a1.57,1.57,0,0,1,.12-.21,2.32,2.32,0,0,1,.22-.25l.2-.17.11-.11a.37.37,0,0,1,.14-.07c.15.08.1-.34.29-.18s.23-.08.35-.15.28,0,.4-.13.14-.08.22,0,.16.12.23-.06a.69.69,0,0,1,.49,0,.21.21,0,0,0,.24.1,1.43,1.43,0,0,1,.28-.07c.12.29.3.22.54.12.07.38.23.4.56.2a1.37,1.37,0,0,1,.24.18.39.39,0,0,0,.14.08.38.38,0,0,0,.16,0l.28.16a.88.88,0,0,1,.24.23.47.47,0,0,1,.35.13.51.51,0,0,1,.09.16.68.68,0,0,1,0,.21c.34,0,.39.32.39.58s.09.22.18.32a.33.33,0,0,1,.12.35c0,.11.07.23.11.35a1.21,1.21,0,0,1,.07.37,1.94,1.94,0,0,0,0,.2,1.62,1.62,0,0,0,0,.19.55.55,0,0,0,.14.38,1.9,1.9,0,0,1,0,.41.58.58,0,0,1-.14.38c.2.32,0,.58-.24.77a1.1,1.1,0,0,1-.21.36.68.68,0,0,0-.18.37,2.12,2.12,0,0,0-.23.35.72.72,0,0,1-.3.3,3.25,3.25,0,0,0-.37.21.8.8,0,0,0-.28.32.51.51,0,0,1-.34.25,1.07,1.07,0,0,0-.39.14.43.43,0,0,0-.4.08.54.54,0,0,1-.37.16,1.08,1.08,0,0,1-.4,0,.76.76,0,0,0-.39.06,1.31,1.31,0,0,1-.39.05l-.19,0a.64.64,0,0,1-.19-.08.24.24,0,0,1-.39,0c-.11-.09-.21-.21-.33-.21a.55.55,0,0,0-.33-.18,1,1,0,0,1-.34-.12c-.12,0-.2-.13-.29-.21a.42.42,0,0,0-.29-.19.71.71,0,0,0-.14-.1l-.15-.09a.4.4,0,0,1-.2-.27c-.14,0-.19-.13-.23-.24s0-.23-.17-.27-.12-.17-.17-.26a1.13,1.13,0,0,1-.12-.28c.08-.16.06-.25,0-.33a1.5,1.5,0,0,1-.2-.23c0-.18-.26-.32-.11-.54a1.33,1.33,0,0,1,0-.28.34.34,0,0,0-.06-.25c0-.08.07-.17.13-.25s.09-.15-.1-.23c0-.08,0-.16.1-.23s.1-.13,0-.22.09-.28.13-.4a2.83,2.83,0,0,1,.15-.35,2.92,2.92,0,0,1,.78-1c.24-.16.39-.21.44-.15s0,.09,0,.18-.07.2-.12.34a4.18,4.18,0,0,0-.34,1.19c0,.1.16.24,0,.31a.47.47,0,0,0,0,.17c0,.06,0,.12,0,.17.14.06.14.11.12.17s-.08.12-.08.18,0,.25.08.36,0,.27.14.36c-.13.18,0,.3.18.36-.05.1,0,.15.06.2a.83.83,0,0,1,.18.13c-.06.13,0,.21,0,.25a1,1,0,0,0,.26.06.34.34,0,0,1,.17.14.5.5,0,0,1,.07.08.24.24,0,0,0,.11.06c.08.13.28.11.38.22a.42.42,0,0,1,.25,0,.27.27,0,0,1,.18.16.48.48,0,0,1,.24,0,.79.79,0,0,0,.22.06.25.25,0,0,1,.12,0h.12a.4.4,0,0,0,.24,0c.08,0,.16,0,.25.06s.18,0,.23-.13.33,0,.47-.16a1.09,1.09,0,0,0,.24-.07.44.44,0,0,0,.19-.17c.15.06.24,0,.3,0a1.33,1.33,0,0,0,.1-.28.38.38,0,0,1,.14-.22,1,1,0,0,1,.18-.18,4.53,4.53,0,0,1,.25-.43c0-.18.23-.28.15-.47a.3.3,0,0,1,.05-.24.21.21,0,0,0,0-.24,1.35,1.35,0,0,1-.08-.24.49.49,0,0,1,0-.12.34.34,0,0,1,.06-.12,1.11,1.11,0,0,1,.05-.25.17.17,0,0,0-.14-.21c0-.07-.16-.11-.22-.16s-.08-.12.06-.27c-.07-.05-.07-.13-.08-.22a.15.15,0,0,0-.14-.17.23.23,0,0,0,0-.17s0-.06-.08-.08a.64.64,0,0,1-.22-.1,1.86,1.86,0,0,0-.1-.2.25.25,0,0,0-.21-.09.14.14,0,0,1-.11,0L41.5,25s-.08-.13-.15-.14-.13,0-.17-.1-.1-.14-.19-.08-.25,0-.36-.13c-.1.17-.15.16-.2.1s-.1-.17-.16-.19-.12,0-.18.06-.11.05-.17-.1c-.05.15-.1.16-.16.13s-.12-.1-.18-.13-.18.16-.31,0c0,.22-.22,0-.29.05-.14-.1-.18.07-.27.07a.23.23,0,0,1-.1.07h-.13l-.21.07-.27.11-.2.08C37.68,24.89,37.6,24.9,37.56,24.86Z"/><path class="cls-1" d="M39.12,19.08C51.19,12.24,55.35,4.92,72.7,1.42c-8,8-16.68,17.94-24.15,25.9-1.21-2.64-1.94-4.56-3.3-5.16A67.18,67.18,0,0,1,39.12,19.08ZM29.69,41.39a11.71,11.71,0,1,1-5.46-5.47,33.19,33.19,0,0,0,5.46-8.6c1.78,1.9,3.49,3.68,5.11,5.3a17.48,17.48,0,0,0,4.32,2.51A40,40,0,0,0,29.69,41.39Z"/><path d="M29.7,41.4s.14-.26.51-.64c.18-.2.42-.43.7-.7l1-.89c.26-.22.55-.44.86-.68a7.13,7.13,0,0,1,1-.75,1.2,1.2,0,0,0,.54-.41,1,1,0,0,1,.61-.38,8.61,8.61,0,0,0,1.29-.81,5.5,5.5,0,0,1,.72-.39l.18-.09.08,0,.05,0a.51.51,0,0,0,.15-.14.11.11,0,0,1,.09-.13l.3-.06a1.75,1.75,0,0,0,.34-.1c.08,0,0,0-.08-.06l-.28,0a1.91,1.91,0,0,1-.43-.15l-.17-.09,0,0h0l-.05,0-.22-.12a10.87,10.87,0,0,0-1.82-1,1.3,1.3,0,0,0-.18-.23,2,2,0,0,0-.18-.23l-.2-.21-.18-.19a6.35,6.35,0,0,0-.87-.65,2.61,2.61,0,0,0-1.57-1.58,13.51,13.51,0,0,0-1.64-1.66l-.24-.18,0,0s0,0,0,0l0,.07a.76.76,0,0,1-.08.11.81.81,0,0,0,0,.11v0h0v0l-.05.15a3.32,3.32,0,0,1-.24.59,5.12,5.12,0,0,1-.74,1.07A4.06,4.06,0,0,1,28.25,32a9.2,9.2,0,0,1-.83,1.06,5.88,5.88,0,0,0-.76,1.13,4.45,4.45,0,0,1-.85,1.09l-.45.53-.76.92-.1.12,0,0s0,0,0,0l-.06,0-.26-.11-.52-.22-.52-.23-.3-.11-.29-.14a1.94,1.94,0,0,0-.3-.13l-.63-.21a3.29,3.29,0,0,0-1.33-.08c-.88,0-1.76.05-2.66.06a13.84,13.84,0,0,1-2.63.73l-.62.28-.63.3a3.61,3.61,0,0,0-.6.35,3.31,3.31,0,0,0-.54.45c-.18.14-.37.28-.54.44s-.33.34-.5.5c-.32.35-.63.7-1,1a6.72,6.72,0,0,0-.87,1.12,4.69,4.69,0,0,0-.56,1.3,5.16,5.16,0,0,1-.2.67c-.06.22-.15.43-.23.65a5.16,5.16,0,0,0-.33,1.34,2.89,2.89,0,0,0-.17,1.36c0,.46.11.91.1,1.36,0,.22,0,.45.08.67l0,.33.06.33a4.86,4.86,0,0,0,.15.66,3.29,3.29,0,0,0,.26.61c.34.82.77,1.57,1.16,2.34a2.8,2.8,0,0,1,.86,1l.17.27.18.26a1.92,1.92,0,0,0,.44.46,3.59,3.59,0,0,0,.93.85l.53.33c.18.1.35.21.52.32s.36.19.54.28.35.21.53.3a4.55,4.55,0,0,0,.55.26,2.41,2.41,0,0,0,.59.14,4,4,0,0,0,.57.16l.58.1.58.09a5.07,5.07,0,0,1,.56.13,4,4,0,0,1,1.15,0,3.63,3.63,0,0,0,.57,0h.28l.27-.07A14.75,14.75,0,0,0,22.59,57a1.46,1.46,0,0,0,.55-.06,1.87,1.87,0,0,0,.49-.2c.16-.08.3-.18.45-.27l.22-.14.21-.14a3.23,3.23,0,0,0,.44-.27l.4-.31a3.41,3.41,0,0,1,.83-.52l.39-.3.38-.3a3.48,3.48,0,0,0,.62-.71,3.77,3.77,0,0,1,.69-.63,1,1,0,0,0,.4-.8,3.18,3.18,0,0,1,.5-.7,1.31,1.31,0,0,0,.31-.78,1.45,1.45,0,0,1,.21-.78,2.79,2.79,0,0,0,.18-.34,2.75,2.75,0,0,0,.15-.36,6.31,6.31,0,0,0,.18-.72c0-.12.06-.23.08-.35l.06-.35a11.78,11.78,0,0,0,.12-2.79c0-.1,0-.2,0-.3s0-.19,0-.29-.05-.37-.07-.54c-.07-.34-.13-.65-.19-.93s-.14-.52-.19-.73-.12-.39-.16-.54-.11-.44-.08-.46.16.14.35.46a2.6,2.6,0,0,0,.15.28l.16.35a6.88,6.88,0,0,1,.34.9c.06.17.12.35.17.55s.1.41.15.63a6.58,6.58,0,0,1,.12.69c0,.12,0,.25.05.37s0,.26,0,.39a11.77,11.77,0,0,1-.29,3.63c0,.13-.05.26-.07.41a3.1,3.1,0,0,1-.08.42,1.93,1.93,0,0,1-.36.8c-.13.27-.21.57-.32.85a3.37,3.37,0,0,1-.49.81,2,2,0,0,1-.44.89c-.23.25-.48.48-.7.73a10.31,10.31,0,0,1-.73.75l-.38.37c-.13.12-.25.25-.38.39a3.08,3.08,0,0,1-.86.69l-.49.28a4.76,4.76,0,0,0-.47.31,10.23,10.23,0,0,0-2.14,1c-.81.1-1.56.47-2.4.56a13,13,0,0,0-2.56.07,10.49,10.49,0,0,1-2.63-.48,13.41,13.41,0,0,1-2.54-1.09,5.67,5.67,0,0,1-2.3-1.68,9.5,9.5,0,0,1-1.91-2.22,9.62,9.62,0,0,1-1.37-2.69A4.43,4.43,0,0,1,7.08,50c0-.25-.1-.5-.13-.76s0-.25-.06-.38l-.06-.38a5.31,5.31,0,0,0-.22-.75,13.23,13.23,0,0,1,.07-3.14,20,20,0,0,1,.86-3.09,10.54,10.54,0,0,0,.86-1.38c.26-.47.5-1,.8-1.42a8.71,8.71,0,0,1,2.32-2.29,10.86,10.86,0,0,1,2.78-1.6,6.13,6.13,0,0,1,1.5-.49l.38-.09.39-.07.76-.17a6.88,6.88,0,0,1,.77-.13h.78l.77.05H20l.38,0a8.52,8.52,0,0,1,1.52.16c.24.06.49.13.73.21a2.55,2.55,0,0,1,.35.14l.34.16.35.13.11.08.12.09s.1.07.11,0l.07-.05,0,0,.06-.07a4.15,4.15,0,0,0,.35-.57c.25-.36.44-.77.67-1.13a2.78,2.78,0,0,1,.88-1,9.29,9.29,0,0,1,.72-1.05A3.8,3.8,0,0,0,27.44,30a2.87,2.87,0,0,0,.69-1c.08-.19.15-.38.22-.57l.06-.15.1-.24c.08-.16.16-.33.23-.49l.49-.92.23-.44,0-.05s0,0,0,0l0,0,.09.1.18.19a17.37,17.37,0,0,0,1.44,1.41,20.7,20.7,0,0,1,1.58,1.69c.64.43.89,1.22,1.52,1.62.24.27.49.52.74.77l.18.19.17.16.16.15.17.15.25.05.23.08a2.48,2.48,0,0,1,.39.27,6.16,6.16,0,0,0,.75.6,1.43,1.43,0,0,0,.21.12l.14.06.18.08.76.31a3.22,3.22,0,0,1,1.2.71,5,5,0,0,1,.5.15c.13.05.4.11.2.17a6.36,6.36,0,0,1-.69.34c-.51.22-1,.39-1.46.57a4.62,4.62,0,0,0-.59.29l-.14.07-.06,0,0,0-.17.11a2,2,0,0,1-.72.34c-.35.42-.93.42-1.31.73a1.62,1.62,0,0,0-.61.32,5.89,5.89,0,0,1-.55.37,4.84,4.84,0,0,1-1,.66c-.32.21-.62.4-.89.6l-1.09.77-.79.57C30,41.29,29.73,41.44,29.7,41.4Z"/><path d="M39.12,19.09a9.77,9.77,0,0,1,2.53,1c.26.12.54.26.86.38a10,10,0,0,1,1,.42c.28.29.81.09,1.09.47a3.81,3.81,0,0,0,.57.29l.32.12a3,3,0,0,1,.37.16l.17.11.16.13a3.83,3.83,0,0,1,.28.29l.26.31a1.9,1.9,0,0,0,.28.29.65.65,0,0,1,.28.29,2.58,2.58,0,0,1,.14.39,1,1,0,0,0,.42.69,6.3,6.3,0,0,1,.4.72c.06.13.12.26.17.39l0,.09,0,.06,0,.09a.6.6,0,0,0,.12.44l.05.06,0,0h0l0,0c.05-.08.09-.16.13-.21s.24,0,.33-.15l.12-.16.13-.2c.08-.13.15-.27.23-.42A2,2,0,0,0,51,23.71a9.74,9.74,0,0,0,1.35-1.5,18.6,18.6,0,0,1,1.4-1.56A4,4,0,0,1,55.17,19a4.74,4.74,0,0,1,1.5-1.68c.62-.47.88-1.28,1.56-1.73s1-1.2,1.6-1.77A6.39,6.39,0,0,0,61.49,12a10.55,10.55,0,0,1,1.69-1.85A5.59,5.59,0,0,1,64.92,8.3c.55-.66,1.27-1.17,1.78-1.9s1.14-1.35,1.84-1.91a10.08,10.08,0,0,0,1.85-1.9A16,16,0,0,1,72.11.82c.25.48.51,1,.76,1.42l-.14,0a13.48,13.48,0,0,0-2.46.54l-1.22.27a5.87,5.87,0,0,0-1.17.36l-.58.19-.29.1-.28.1a9.5,9.5,0,0,1-1.16.32,2,2,0,0,1-1.09.47A4.66,4.66,0,0,0,63.36,5a4,4,0,0,0-1.09.37c-.35.16-.67.36-1,.5a6.65,6.65,0,0,1-1,.42l-.26.1-.25.12a2.27,2.27,0,0,0-.46.3c-.66.31-1.23.76-1.9,1-.51.52-1.29.55-1.79,1l-.85.55-.43.26a4.28,4.28,0,0,1-.42.26c-.7.13-1.1.68-1.59,1.06s-.91.86-1.51,1a7.15,7.15,0,0,0-1.43,1c-.43.37-1.16.31-1.35.94-.39.38-1,.37-1.28.87s-.81.54-1.19.8l-1.12.71c-.79.51-1.53.93-2.16,1.3-.32.18-.62.36-.89.5l-.76.39c-.91.45-1.41.66-1.45.59S41.29,17.51,45,14.8c.37-.28.63-.72,1.14-.86A7.26,7.26,0,0,1,47.31,13c.27-.53.84-.67,1.31-1A10.35,10.35,0,0,0,50,11c.39-.48,1-.65,1.49-1.11a4.05,4.05,0,0,0,1.58-1.13,2.38,2.38,0,0,0,.45-.23c.14-.09.28-.18.42-.29s.54-.43.83-.62A4.69,4.69,0,0,0,56.6,6.46a21.1,21.1,0,0,1,1.94-1.07c.17-.08.33-.16.5-.26L59.29,5l.26-.13a9.93,9.93,0,0,1,1-.5,8,8,0,0,1,1-.58,6.53,6.53,0,0,1,1.14-.35A9.79,9.79,0,0,1,63.87,3L65,2.59a7.75,7.75,0,0,1,1.17-.42l.29-.09L66.81,2l.6-.16a7.38,7.38,0,0,1,1.24-.26,3.77,3.77,0,0,0,1.21-.41C70.69,1,71.55.84,72.39.59l.14,0L75.4,0,73.32,2a17.81,17.81,0,0,0-1.7,1.77,6.12,6.12,0,0,0-1.83,1.89A19.44,19.44,0,0,1,68,7.59c-.59.64-1.18,1.27-1.78,1.88s-1.25,1.18-1.74,1.87-1.23,1.14-1.71,1.83A9.11,9.11,0,0,1,61.05,15c-.55.6-1.27,1-1.63,1.76s-.78,1.4-1.58,1.7c-.44.63-1.16,1-1.53,1.65-.71.36-1,1.08-1.49,1.6a8,8,0,0,0-1.45,1.52A14,14,0,0,1,52,24.65c-.33.6-1,.82-1.33,1.4-.12.11-.22.23-.33.34s-.23.26-.35.38c-.34.38-.69.76-1,1.08a3.93,3.93,0,0,1-.54.81l-.06.09s0-.06,0-.08-.05-.12-.08-.19a3.71,3.71,0,0,1-.15-.4c-.2-.55-.34-1.09-.5-1.49,0-.1-.08-.2-.13-.3l-.07-.14-.05-.09-.22-.35a1.2,1.2,0,0,1-.25-.76c-.49-.33-.5-.86-.69-1.28a.92.92,0,0,0-.19-.28,2.28,2.28,0,0,0-.22-.22L45.5,23l-.09-.1a.31.31,0,0,1-.09-.11,1.07,1.07,0,0,1-.27-.07,2.11,2.11,0,0,1-.27-.18,1.91,1.91,0,0,0-.56-.34,4.73,4.73,0,0,0-1.07-.55,3.18,3.18,0,0,1-.95-.5c-.3-.16-.58-.32-.83-.48C39.86,19.73,39.06,19.19,39.12,19.09Z"/><path d="M14.32,41.74s0-.15.15-.34a2.34,2.34,0,0,1,.27-.34c.12-.12.26-.26.43-.41l.39-.29a1.92,1.92,0,0,1,.21-.16,1.19,1.19,0,0,1,.25-.13c.23,0,.26-.42.55-.28a.85.85,0,0,0,.32-.09l.16-.08.16-.08c.22-.1.49,0,.72-.19s.25-.1.39-.05.28.11.41-.07a1.22,1.22,0,0,1,.42-.06,3.15,3.15,0,0,1,.44,0,.63.63,0,0,0,.45.12,3.75,3.75,0,0,1,.48,0c.25.32.57.27.95.23a.69.69,0,0,0,.38.39.9.9,0,0,0,.58,0,3.2,3.2,0,0,1,.45.3l.23.14a1.56,1.56,0,0,0,.26.11c.15.1.33.19.47.3a2.65,2.65,0,0,1,.42.4,1,1,0,0,1,.53.31,1.56,1.56,0,0,1,.17.25,1.4,1.4,0,0,1,.09.31,1.22,1.22,0,0,1,.67,1,1.18,1.18,0,0,0,.3.56.91.91,0,0,1,.2.6l.05.15,0,.16a2.81,2.81,0,0,1,.1.31,2.32,2.32,0,0,1,.11.64c0,.12,0,.23,0,.34a1.83,1.83,0,0,0,0,.66,1.62,1.62,0,0,0,.1.34,3.08,3.08,0,0,1,0,.68,1.6,1.6,0,0,1-.18.67A1.44,1.44,0,0,1,26,49.48a2.69,2.69,0,0,1-.34.62,2,2,0,0,0-.33.63,5.27,5.27,0,0,0-.41.6,2.51,2.51,0,0,1-.51.52,5.19,5.19,0,0,0-.59.42,2.09,2.09,0,0,0-.53.5,1.41,1.41,0,0,1-.59.4c-.11,0-.23.08-.34.12a1.87,1.87,0,0,0-.32.15,1.36,1.36,0,0,0-.36.05,1.48,1.48,0,0,0-.32.14l-.15.09-.16.07a1.4,1.4,0,0,1-.34.08,2.65,2.65,0,0,1-.69.07,2.57,2.57,0,0,0-.67.09l-.34,0h-.33c-.12,0-.23,0-.34,0A1.7,1.7,0,0,1,18,54a.58.58,0,0,1-.67,0l-.29-.18-.15-.06a.43.43,0,0,0-.16-.05,1.57,1.57,0,0,0-.57-.27,3,3,0,0,1-.59-.23,1.93,1.93,0,0,1-.51-.35L15,52.71a.52.52,0,0,0-.11-.1.87.87,0,0,0-.27-.14,2.2,2.2,0,0,0-.25-.17l-.24-.18a1,1,0,0,1-.38-.44.8.8,0,0,1-.39-.42,1.1,1.1,0,0,0-.32-.47c0-.07-.1-.15-.16-.22s-.09-.16-.14-.24a3.58,3.58,0,0,1-.24-.48.6.6,0,0,0-.09-.52,3.59,3.59,0,0,1-.28-.44c-.09-.32-.35-.6-.23-1a3.84,3.84,0,0,1,0-.48,1.11,1.11,0,0,0-.08-.44.84.84,0,0,1,.13-.45.3.3,0,0,0-.11-.42.65.65,0,0,1,.12-.4.32.32,0,0,0,0-.4c-.21-.3.13-.5.19-.72l.12-.33c0-.1.09-.21.13-.31a5.92,5.92,0,0,1,1.27-1.83c.39-.34.63-.48.68-.42s0,.12-.06.26l-.15.25-.09.16a1.62,1.62,0,0,1-.1.18,7.2,7.2,0,0,0-.87,2.29c0,.2.11.44-.09.63a1.38,1.38,0,0,0,0,.35.57.57,0,0,1,0,.34.35.35,0,0,1,.11.36,2.2,2.2,0,0,0-.07.37c0,.12,0,.25,0,.38a.87.87,0,0,0,.11.38c.23.22,0,.54.25.77a.62.62,0,0,0,.05.43,1.1,1.1,0,0,0,.31.34.56.56,0,0,0,.17.4l.16.16a1.22,1.22,0,0,1,.15.17.53.53,0,0,0,.18.44,4.19,4.19,0,0,0,.42.24,1.73,1.73,0,0,1,.35.31l.17.17a1.32,1.32,0,0,0,.2.12.9.9,0,0,0,.19.15l.1.07.11,0a2.61,2.61,0,0,1,.43.24,1.64,1.64,0,0,1,.49.1,1.3,1.3,0,0,1,.43.26l.13,0h.12l.25.06a2.7,2.7,0,0,0,.49.12,1.15,1.15,0,0,1,.26,0l.26,0,.26,0a1.11,1.11,0,0,0,.26,0,2.46,2.46,0,0,1,.54,0,.54.54,0,0,0,.52-.18,4.53,4.53,0,0,0,1-.34,3.22,3.22,0,0,0,.51-.21,1.81,1.81,0,0,0,.46-.32.71.71,0,0,0,.53-.23,3.14,3.14,0,0,0,.33-.48,1.9,1.9,0,0,1,.34-.45l.37-.42c.09-.16.17-.32.27-.48s.17-.32.26-.48c.06-.36.37-.65.34-1a1.33,1.33,0,0,1,.09-.52.81.81,0,0,0,.05-.53,2,2,0,0,0,0-.26,2.3,2.3,0,0,1,0-.26,1.13,1.13,0,0,1,0-.26,1.27,1.27,0,0,1,0-.26,4.68,4.68,0,0,1,0-.53,1.11,1.11,0,0,0-.05-.25.34.34,0,0,0-.06-.12l-.1-.1c-.09-.15-.22-.27-.32-.41a.44.44,0,0,1,0-.51,1,1,0,0,1-.22-.44.56.56,0,0,0,0-.12L24,43.1a.42.42,0,0,0-.18-.17.49.49,0,0,0-.05-.27.55.55,0,0,0-.17-.17c-.13-.1-.27-.18-.38-.28s-.19-.26-.29-.37a.84.84,0,0,0-.4-.23.47.47,0,0,1-.2-.1.55.55,0,0,1-.17-.13,1.1,1.1,0,0,0-.36-.26.48.48,0,0,1-.38-.2.38.38,0,0,0-.38-.15c-.25-.14-.53-.13-.77-.25-.17.16-.29.15-.41.08s-.23-.2-.35-.22a.8.8,0,0,0-.37.06.33.33,0,0,1-.36-.1.31.31,0,0,1-.34.14c-.11,0-.23-.09-.35-.11s-.4.21-.63.1a.23.23,0,0,1-.13.1h-.16c-.1,0-.21,0-.29,0-.24-.07-.35.13-.52.17a.53.53,0,0,1-.22.12.61.61,0,0,1-.24.07l-.4.18-.47.27-.35.21C14.48,41.74,14.36,41.78,14.32,41.74Z"/><path d="M84.3,10c0,.11-.22.21-.63.3l-.21,0a.53.53,0,0,1-.25.05c-.08-.14-.17.25-.27,0-.09-.06-.19,0-.3,0s-.21-.09-.33,0-.23-.3-.35,0a.6.6,0,0,1-.37,0c-.13-.21-.27,0-.4,0-.14-.25-.28-.14-.42,0-.15-.34-.3-.29-.45,0-.15,0-.3-.12-.46,0a.87.87,0,0,1-.48,0c-.16.23-.33.22-.5,0-.17.25-.34.15-.51,0s-.36.22-.54,0a3.25,3.25,0,0,1-.54,0c-.19-.1-.37-.22-.56,0-.19.06-.38.15-.57,0-.2.27-.39.15-.59,0-.2,0-.4-.14-.6,0-.2-.05-.4.11-.6,0s-.41-.16-.61,0-.39-.07-.59,0c-.2-.24-.39.08-.58,0s-.39-.14-.58,0a.68.68,0,0,1-.56,0c-.18.38-.37-.1-.54,0-.18-.16-.36,0-.54,0s-.34-.17-.51,0c-.17,0-.34.12-.5,0-.16.19-.32-.16-.48,0a1.41,1.41,0,0,1-.46,0c-.15-.29-.3,0-.45,0s-.28.17-.42,0c-.13,0-.27-.15-.39,0s-.26-.43-.38,0c-.12.07-.24-.3-.35,0s-.23,0-.33,0l-.3,0c-.86-.13-1.36-.28-1.36-.44s.61-.34,1.66-.48c.1,0,.21-.22.33,0,.11,0,.23-.15.35,0,.12-.28.24-.05.38,0s.26.07.39,0,.28.08.42,0c.15.17.3.13.45,0,.15.17.3,0,.46,0,.16.26.32.08.48,0s.33,0,.5,0,.34-.06.51,0a.42.42,0,0,1,.54,0c.17-.08.36,0,.54,0s.37,0,.56,0,.38.27.58,0a5.61,5.61,0,0,0,.58,0,1.07,1.07,0,0,0,.59,0c.2.28.41.11.61,0a1,1,0,0,1,.6,0,2.41,2.41,0,0,1,.6,0c.2-.09.39.11.59,0s.38.13.57,0a.52.52,0,0,1,.56,0c.18,0,.36.25.54,0,.18,0,.36-.36.54,0,.17-.09.34.19.51,0,.17.28.34,0,.5,0s.33.15.48,0,.31.08.46,0,.3.21.45,0c.14,0,.28,0,.42,0,.13-.38.27,0,.4,0s.25-.25.37,0c.12-.29.24,0,.35,0s.23-.12.33,0c.11-.2.21.12.3.05.1.13.19,0,.27,0a.2.2,0,0,1,.25.05l.21,0C84.08,9.8,84.3,9.91,84.3,10Z"/><path d="M52.41,10c0,.11-.29.21-.83.3l-.29,0a.88.88,0,0,1-.33.05c-.11-.14-.24.25-.36,0a.54.54,0,0,0-.41,0c-.14,0-.28-.09-.44,0s-.3-.3-.46,0a1.11,1.11,0,0,1-.51,0c-.17-.21-.35,0-.53,0-.19-.25-.37-.14-.57,0-.19-.34-.39-.29-.59,0-.2,0-.41-.12-.62,0a1.53,1.53,0,0,1-.64,0,.43.43,0,0,1-.67,0c-.23.25-.46.15-.69,0s-.47.22-.71,0a5.93,5.93,0,0,1-.73,0c-.25-.1-.5-.22-.75,0a1,1,0,0,1-.77,0c-.26.27-.52.15-.78,0-.27,0-.53-.14-.8,0-.27-.05-.54.11-.81,0a1,1,0,0,0-.81,0c-.27.16-.53-.07-.8,0-.26-.24-.52.08-.78,0s-.51-.14-.77,0a1.2,1.2,0,0,1-.75,0c-.24.38-.49-.1-.73,0-.24-.16-.48,0-.71,0s-.46-.17-.69,0c-.23,0-.45.12-.67,0-.22.19-.43-.16-.64,0a2.56,2.56,0,0,1-.62,0c-.2-.29-.4,0-.59,0s-.39.17-.57,0c-.18,0-.36-.15-.53,0s-.34-.43-.51,0c-.16.07-.32-.3-.47,0s-.29,0-.44,0l-.4,0c-1.15-.13-1.81-.28-1.81-.44s.82-.34,2.21-.48c.15,0,.29-.22.44,0,.15,0,.31-.15.47,0,.17-.28.33-.05.51,0s.35.07.53,0,.37.08.57,0a.41.41,0,0,0,.59,0c.2.17.41,0,.62,0,.21.26.42.08.64,0s.44,0,.67,0,.46-.06.69,0a.7.7,0,0,1,.71,0,2.24,2.24,0,0,1,.73,0c.25-.1.5,0,.75,0s.51.27.77,0c.26,0,.52.05.78,0a2,2,0,0,0,.8,0c.27.28.54.11.81,0a1.85,1.85,0,0,1,.81,0,4.28,4.28,0,0,1,.8,0c.26-.09.52.11.78,0s.51.13.77,0a.89.89,0,0,1,.75,0c.24,0,.49.25.73,0,.24,0,.48-.36.71,0,.23-.09.46.19.69,0,.23.28.45,0,.67,0s.43.15.64,0,.42.08.62,0,.4.21.59,0c.2,0,.38,0,.57,0,.18-.38.36,0,.53,0s.34-.25.51,0c.16-.29.31,0,.46,0s.3-.12.44,0c.14-.2.28.12.41.05.12.13.25,0,.36,0a.33.33,0,0,1,.33.05l.29,0C52.12,9.8,52.41,9.91,52.41,10Z"/><path d="M13.8,10c0,.11-.16.21-.44.3l-.15,0a.26.26,0,0,1-.17.05c-.06-.14-.12.25-.19,0-.06-.06-.13,0-.2,0s-.15-.09-.23,0-.16-.3-.25,0a.3.3,0,0,1-.26,0c-.09-.21-.18,0-.28,0-.09-.25-.19-.14-.29,0-.1-.34-.2-.29-.3,0-.11,0-.22-.12-.33,0s-.22.09-.33,0c-.11.23-.23.22-.35,0-.12.25-.24.15-.36,0s-.24.22-.37,0c-.12,0-.25.06-.38,0s-.25-.22-.38,0c-.14.06-.27.15-.4,0-.14.27-.27.15-.41,0-.14,0-.27-.14-.41,0-.14-.05-.28.11-.42,0s-.28-.16-.42,0-.28-.07-.42,0c-.13-.24-.27.08-.4,0s-.27-.14-.4,0-.26.1-.39,0c-.13.38-.25-.1-.38,0-.12-.16-.25,0-.37,0s-.24-.17-.36,0c-.11,0-.23.12-.34,0-.12.19-.23-.16-.34,0a.7.7,0,0,1-.32,0c-.1-.29-.21,0-.31,0s-.19.17-.29,0c-.09,0-.19-.15-.28,0s-.17-.43-.26,0c-.08.07-.16-.3-.24,0s-.16,0-.23,0l-.21,0C.34,10.32,0,10.17,0,10s.42-.34,1.15-.48c.07,0,.15-.22.23,0,.08,0,.16-.15.24,0,.09-.28.17-.05.26,0s.19.07.28,0,.19.08.29,0c.1.17.21.13.31,0,.11.17.21,0,.32,0,.11.26.22.08.34,0s.23,0,.34,0,.24-.06.36,0c.12-.12.25-.16.37,0,.13-.08.25,0,.38,0s.26,0,.39,0,.26.27.4,0c.13,0,.27.05.4,0a.56.56,0,0,0,.42,0c.14.28.28.11.42,0a.51.51,0,0,1,.42,0,1.13,1.13,0,0,1,.41,0c.14-.09.27.11.41,0s.26.13.4,0,.26-.12.38,0,.26.25.38,0c.13,0,.25-.36.37,0,.12-.09.24.19.36,0,.12.28.24,0,.35,0s.22.15.33,0,.22.08.33,0,.2.21.3,0c.1,0,.2,0,.29,0,.1-.38.19,0,.28,0s.18-.25.26,0c.09-.29.17,0,.25,0s.15-.12.23,0c.07-.2.14.12.2.05.07.13.13,0,.19,0s.12,0,.17.05l.15,0C13.64,9.8,13.8,9.91,13.8,10Z"/><path d="M84.3,4.42c0,.1-.16.2-.46.3l-.16,0a.27.27,0,0,1-.18,0c-.06-.14-.13.26-.2,0-.07-.06-.14,0-.22.05s-.15-.09-.24,0c-.08.28-.17-.3-.26,0-.08.08-.17.06-.27,0-.09-.21-.19,0-.29,0-.1-.25-.21-.14-.31,0-.11-.35-.21-.29-.33,0-.11,0-.22-.12-.33,0s-.24.08-.36,0c-.12.23-.24.22-.36,0-.13.24-.25.15-.38,0s-.26.21-.39,0c-.13,0-.27,0-.4,0s-.27-.21-.41,0c-.14.06-.28.14-.42,0-.14.26-.28.14-.43,0-.14.05-.29-.14-.44,0-.14,0-.29.12-.44,0s-.3-.15-.44,0-.29-.07-.44,0c-.14-.24-.28.09-.43,0s-.28-.15-.42,0a.4.4,0,0,1-.41,0c-.13.38-.26-.09-.4,0-.13-.16-.26,0-.39,0s-.25-.18-.38,0c-.12,0-.24.12-.36,0-.12.19-.24-.16-.35,0a1.27,1.27,0,0,1-.34,0c-.11-.3-.22-.05-.33,0s-.21.17-.3,0c-.11,0-.2-.15-.3,0s-.18-.43-.27,0c-.09.07-.18-.3-.26,0s-.16,0-.24,0l-.22-.05c-.63-.13-1-.27-1-.43s.44-.34,1.21-.48c.08,0,.16-.22.24,0,.08,0,.17-.16.26,0,.09-.28.18,0,.27,0s.19.08.3,0,.2.08.3,0c.11.16.22.12.33,0,.11.16.22,0,.34,0,.11.25.23.07.35,0s.24,0,.36,0,.25-.07.38,0c.13-.12.26-.17.39,0,.14-.09.27,0,.4,0s.28,0,.41,0,.28.27.42,0c.15,0,.29,0,.43,0a.61.61,0,0,0,.44,0c.14.28.29.11.44,0a.56.56,0,0,1,.44,0,1.61,1.61,0,0,1,.44,0c.15-.08.29.12.43,0s.28.12.42,0,.27-.13.41,0,.27.25.4,0c.13-.06.26-.37.39,0,.13-.1.25.18.38,0,.12.28.24,0,.36,0s.24.15.36,0,.22.07.33,0,.22.21.33,0c.1,0,.21,0,.31,0,.1-.38.2,0,.29,0s.19-.25.27,0c.09-.29.18,0,.26,0s.17-.12.24,0c.08-.2.15.11.22,0,.07.13.14,0,.2,0a.12.12,0,0,1,.18.05l.16,0C84.14,4.21,84.3,4.31,84.3,4.42Z"/><path d="M62.46,4.42c0,.1-.51.2-1.46.3l-.5,0a2.72,2.72,0,0,1-.58,0c-.2-.14-.42.26-.64,0a1.58,1.58,0,0,0-.71.05c-.25,0-.5-.09-.77,0-.26.28-.54-.3-.83,0a2.58,2.58,0,0,1-.88,0c-.3-.21-.62,0-.94,0a.84.84,0,0,0-1,0c-.34-.35-.68-.29-1,0a2.87,2.87,0,0,0-1.09,0,5.3,5.3,0,0,1-1.13,0,1.16,1.16,0,0,1-1.17,0,1.39,1.39,0,0,1-1.21,0c-.41-.14-.83.21-1.25,0-.43,0-.85,0-1.29,0a1.82,1.82,0,0,0-1.32,0,3.18,3.18,0,0,1-1.34,0,1.66,1.66,0,0,1-1.38,0,6.56,6.56,0,0,0-1.4,0,8.42,8.42,0,0,1-1.42,0,3,3,0,0,0-1.42,0c-.47.17-.94-.07-1.4,0-.46-.24-.92.09-1.38,0a5,5,0,0,0-1.34,0,3.9,3.9,0,0,1-1.32,0c-.43.38-.86-.09-1.28,0-.43-.16-.84,0-1.25,0s-.82-.18-1.22,0c-.4,0-.79.12-1.17,0-.38.19-.76-.16-1.13,0s-.73,0-1.09,0c-.35-.3-.7-.05-1,0s-.67.17-1,0a2.14,2.14,0,0,0-.94,0c-.3,0-.6-.43-.88,0-.29.07-.56-.3-.83,0s-.52,0-.77,0L19,4.85c-2-.13-3.18-.27-3.18-.43s1.43-.34,3.89-.48c.25,0,.5-.22.77,0,.27,0,.54-.16.83,0,.28-.28.58,0,.88,0a3,3,0,0,0,.94,0c.32-.16.65.08,1,0a1.22,1.22,0,0,0,1,0c.36.16.72,0,1.09,0,.37.25.75.07,1.13,0s.77,0,1.17,0,.81-.07,1.22,0a2,2,0,0,1,1.25,0,6.08,6.08,0,0,1,1.28,0,7.27,7.27,0,0,1,1.32,0c.44-.06.89.27,1.34,0,.46,0,.92,0,1.38,0a6,6,0,0,0,1.4,0,1.8,1.8,0,0,0,1.42,0,5.62,5.62,0,0,1,1.42,0c.47,0,.94,0,1.4,0s.92.12,1.38,0,.9.12,1.34,0a2.68,2.68,0,0,1,1.32,0c.44,0,.86.25,1.29,0,.42-.06.84-.37,1.25,0,.41-.1.81.18,1.21,0,.4.28.79,0,1.17,0A2.55,2.55,0,0,0,52,3.7c.37-.14.74.07,1.09,0s.7.21,1,0c.34,0,.67,0,1,0,.32-.38.64,0,.94,0s.6-.25.88,0c.29-.29.57,0,.83,0s.52-.12.77,0c.25-.2.48.11.71,0,.22.13.44,0,.64,0a1,1,0,0,1,.58.05l.5,0C62,4.21,62.46,4.31,62.46,4.42Z"/><path d="M8.5,4.42c0,.1-.1.2-.27.3l-.09,0s-.07.06-.11,0-.07.26-.11,0c0-.06-.09,0-.13.05s-.09-.09-.14,0c-.05.28-.1-.3-.15,0,0,.08-.11.06-.16,0-.06-.21-.12,0-.17,0-.06-.25-.12-.14-.18,0-.07-.35-.13-.29-.19,0-.07,0-.13-.12-.2,0s-.14.08-.21,0c-.07.23-.14.22-.21,0-.07.24-.15.15-.22,0s-.15.21-.23,0c-.08,0-.15,0-.23,0s-.16-.21-.24,0c-.08.06-.17.14-.25,0-.08.26-.16.14-.25,0-.08.05-.17-.14-.25,0-.09,0-.18.12-.26,0s-.18-.15-.26,0-.17-.07-.26,0c-.08-.24-.16.09-.25,0s-.16-.15-.24,0-.16.09-.24,0c-.08.38-.16-.09-.23,0-.08-.16-.16,0-.23,0s-.15-.18-.22,0c-.07,0-.15.12-.22,0C2,5.35,2,5,1.9,5.14s-.14,0-.2,0c-.06-.3-.13-.05-.19,0s-.12.17-.18,0c-.06,0-.12-.15-.17,0S1.05,4.58,1,5C1,5,.9,4.67.85,4.93s-.1,0-.14,0L.58,4.85C.21,4.72,0,4.58,0,4.42s.26-.34.71-.48c0,0,.09-.22.14,0,.05,0,.1-.16.15,0,.05-.28.1,0,.16,0s.11.08.17,0,.12.08.18,0c.06.16.13.12.19,0,.06.16.13,0,.2,0,.06.25.13.07.2,0s.15,0,.22,0,.14-.07.22,0c.07-.12.15-.17.23,0,.07-.09.15,0,.23,0s.16,0,.24,0,.16.27.24,0c.09,0,.17,0,.25,0s.17.07.26,0c.08.28.17.11.26,0s.17,0,.26,0a.53.53,0,0,1,.25,0c.09-.08.17.12.25,0s.17.12.25,0,.16-.13.24,0,.15.25.23,0c.08-.06.15-.37.23,0,.07-.1.15.18.22,0,.07.28.14,0,.21,0s.14.15.21,0,.13.07.2,0,.12.21.19,0c.06,0,.12,0,.18,0,0-.38.11,0,.17,0s.11-.25.16,0c0-.29.1,0,.15,0s.09-.12.14,0c0-.2.08.11.13,0C8,4.11,8,4,8,4s.07,0,.11.05l.09,0C8.4,4.21,8.5,4.31,8.5,4.42Z"/></g></g></svg>